<?xml version="1.0" encoding="UTF-8"?>
<svg width="24px" height="24px" viewBox="0 0 24 24" version="1.1" xmlns="http://www.w3.org/2000/svg">
    <g stroke="none" stroke-width="1" fill="none" fill-rule="evenodd">
        <path d="M12,2C6.48,2,2,6.48,2,12s4.48,10,10,10s10-4.48,10-10S17.52,2,12,2z M15.5,14.62c-0.36,0.65-1,1.16-1.71,1.3 c-0.44,0.09-0.88,0.09-1.32,0.09H9.91v1.76H8.39v-1.76H6.88v-1.52h1.51v-6.1H6.88V6.87h1.51V5.11h1.52v1.76h1.89 c0.44,0,0.88-0.01,1.32,0.09c0.71,0.14,1.35,0.65,1.71,1.3c0.31,0.57,0.35,1.27,0.19,1.89c-0.15,0.62-0.57,1.16-1.12,1.47 c0.79,0.28,1.47,0.97,1.59,1.83C15.66,13.82,15.81,14.28,15.5,14.62z" fill="#FFFFFF"/>
        <path d="M13.38,9.17c-0.19-0.42-0.77-0.46-1.19-0.46h-2.28v1.98h2.28c0.42,0,1-0.04,1.19-0.46 C13.52,9.87,13.52,9.53,13.38,9.17z" fill="#FFFFFF"/>
        <path d="M13.93,12.12c-0.23-0.51-0.9-0.54-1.4-0.54H9.91v2.14h2.62c0.5,0,1.17-0.03,1.4-0.54 C14.1,12.77,14.1,12.53,13.93,12.12z" fill="#FFFFFF"/>
    </g>
</svg> 