<?xml version="1.0" encoding="UTF-8"?>
<svg width="24px" height="24px" viewBox="0 0 24 24" version="1.1" xmlns="http://www.w3.org/2000/svg">
    <g stroke="none" stroke-width="1" fill="none" fill-rule="evenodd">
        <path d="M16.2,3.8l-2.4,3.5c-0.2,0.3-0.2,0.7,0,1l4.4,6.4c0.2,0.3,0.6,0.3,0.8,0.1l2.4-2c0.2-0.2,0.3-0.5,0.3-0.8V4.8 c0-0.4-0.4-0.7-0.8-0.5l-4.4,2.8C16.4,3.9,16.3,3.8,16.2,3.8z" fill="#FFFFFF"/>
        <path d="M14.7,12.2l-2.4,3.5c-0.2,0.3-0.2,0.7,0,1l4.4,6.4c0.2,0.3,0.6,0.3,0.8,0.1l2.4-2c0.2-0.2,0.3-0.5,0.3-0.8v-7.2 c0-0.4-0.4-0.7-0.8-0.5l-4.4,2.8C14.9,12.3,14.8,12.2,14.7,12.2z" fill="#FFFFFF"/>
        <path d="M7.8,3.8l2.4,3.5c0.2,0.3,0.2,0.7,0,1l-4.4,6.4c-0.2,0.3-0.6,0.3-0.8,0.1l-2.4-2C2.4,12.6,2.3,12.3,2.3,12V4.8 c0-0.4,0.4-0.7,0.8-0.5l4.4,2.8C7.6,3.9,7.7,3.8,7.8,3.8z" fill="#FFFFFF"/>
        <path d="M9.3,12.2l2.4,3.5c0.2,0.3,0.2,0.7,0,1l-4.4,6.4c-0.2,0.3-0.6,0.3-0.8,0.1l-2.4-2c-0.2-0.2-0.3-0.5-0.3-0.8v-7.2 c0-0.4,0.4-0.7,0.8-0.5l4.4,2.8C9.1,12.3,9.2,12.2,9.3,12.2z" fill="#FFFFFF"/>
    </g>
</svg> 